<svg xmlns="http://www.w3.org/2000/svg" xmlns:xlink="http://www.w3.org/1999/xlink" viewBox="0 0 653 379">
<rect fill="#009140" width="653" height="379"/>
<path fill="#FFFFFF" d="M182.766,143.177l35.788-98.732l-11.341-19.344l22.681-24.682h48.695l0.667,14.009h-42.691l-8.672,9.339
	l10.006,18.01l-12.582,44.596h174.757l2.67-8.156c-14.046-1.828-38.271-10.48-44.058-15.507c-5.785-5.027-0.719-9.647,5.871-9.862
	c34.492-1.467,85.734-4.356,95.47-4.398c9.733-0.043,10.729,4.852,4.215,11.98c-6.518,7.127-12.211,13.543-36.898,17.369
	l-6.671,18.011l41.354,51.229c19.489-11.831,43.063-17.987,65.97-17.987c68.72,0,124.767,56.047,124.767,124.767
	c0,68.719-56.047,124.766-124.767,124.766c-56.534,0-106.245-38.989-120.856-92.874l-37.997,6.828
	c-1.626,4.479-5.419,7.914-9.947,10.603l6.778,32.146h8.672l0.666,8.672l-27.35,1.334v-9.339h6.672l-8.264-32.126
	c-12.291-2.013-18.732-12.535-15.072-22.979l-124.131-140.39l-5.559,15.062c30.128,23.732,48.16,60.285,48.16,98.3
	c0,68.719-56.047,124.766-124.766,124.766c-68.719,0-124.766-56.052-124.766-124.771c0-68.718,56.047-124.765,124.766-124.765
	C144.985,129.05,165.455,133.923,182.766,143.177z"/>
<path fill="#009140" d="M427.353,260.018l85.419-13.942l-53.834-69.928C431.033,200.477,427.563,229.684,427.353,260.018z"/>
<path fill="#009140" d="M403.856,265.133c-0.14-3.031-0.625-7.904-0.625-11.316c0-34.604,11.192-68.229,41.574-96.178
	l-31.642-37.883l-48.973,149.4L403.856,265.133z"/>
<path fill="#009140" d="M215.885,116.44l2.716-8.314l174.429-0.229l-46.401,140.667l-2-14.676h5.336l-0.667-9.339H325.95
	l0.666,8.673h6.004l1.334,16.01C333.954,249.232,216.553,117.108,215.885,116.44z"/>
<path fill="#009140" d="M138.632,251.566c23.425-18.604,41.658-36.34,54.806-71.825c20.753,18.825,32.592,46.056,32.592,74.073
	c0,55.645-45.383,101.026-101.026,101.026S23.977,309.459,23.977,253.814c0-55.644,45.383-101.025,101.026-101.025
	c17.759,0,35.912,5.13,50.55,13.771c-9.908,31.311-19.547,47.458-50.033,71.999c-7.4,0.313-13.028,6.254-13.028,13.342
	c0,7.349,5.993,13.342,13.341,13.342C133.181,265.241,138.632,259.248,138.632,251.566z"/>
<path fill="#009140" d="M430.933,281.48c11.428,42.58,52.075,73.362,97.063,73.362c55.645,0,101.028-45.384,101.028-101.028
	c0-55.644-45.385-101.026-101.028-101.026c-17.759,0-38.308,4.19-53.298,12.967l54.834,72.804
	c6.707,0.104,12.545,6.099,12.545,13.342c0,7.349-5.994,13.342-13.342,13.342c-2.033,0-4.169-0.521-5.974-1.37L430.933,281.48z"/>
</svg>
