<?xml version="1.0" encoding="UTF-8"?>

<!DOCTYPE svg PUBLIC '-//W3C//DTD SVG 1.0//EN' 'http://www.w3.org/TR/2001/REC-SVG-20010904/DTD/svg10.dtd'>
<svg xmlns:xlink="http://www.w3.org/1999/xlink" style="fill-opacity:1; color-rendering:auto; color-interpolation:auto; text-rendering:auto; stroke:black; stroke-linecap:square; stroke-miterlimit:10; shape-rendering:auto; stroke-opacity:1; fill:black; stroke-dasharray:none; font-weight:normal; stroke-width:1; font-family:&apos;Dialog&apos;; font-style:normal; stroke-linejoin:miter; font-size:12; stroke-dashoffset:0; image-rendering:auto;" xmlns="http://www.w3.org/2000/svg">
  <!--Generated by the Batik Graphics2D SVG Generator-->
  <defs id="genericDefs" />
  <g>
    <defs id="defs1">
      <linearGradient x1="794" gradientUnits="userSpaceOnUse" x2="872" y1="331" y2="420" id="linearGradient1" spreadMethod="pad">
        <stop style="stop-opacity:1; stop-color:red;" offset="0%" />
        <stop style="stop-opacity:1; stop-color:yellow;" offset="100%" />
      </linearGradient>
      <linearGradient x1="885" gradientUnits="userSpaceOnUse" x2="1041" y1="409" y2="585" id="linearGradient2" spreadMethod="pad">
        <stop style="stop-opacity:1; stop-color:yellow;" offset="0%" />
        <stop style="stop-opacity:1; stop-color:rgb(102,102,255);" offset="100%" />
      </linearGradient>
      <linearGradient x1="906" gradientUnits="userSpaceOnUse" x2="1005" y1="758" y2="772" id="linearGradient3" spreadMethod="pad">
        <stop style="stop-opacity:1; stop-color:red;" offset="0%" />
        <stop style="stop-opacity:1; stop-color:yellow;" offset="100%" />
      </linearGradient>
      <linearGradient x1="1007" gradientUnits="userSpaceOnUse" x2="1085" y1="757" y2="771" id="linearGradient4" spreadMethod="pad">
        <stop style="stop-opacity:1; stop-color:yellow;" offset="0%" />
        <stop style="stop-opacity:1; stop-color:rgb(102,102,255);" offset="100%" />
      </linearGradient>
    </defs>
    <g style="fill:white; stroke:white;">
      <rect x="0" y="0" width="699" style="stroke:none;" height="533" />
    </g>
    <g transform="matrix(0.3267,0,0,-0.3267,30,533)" style="fill-opacity:0.4941; fill:rgb(172,183,208); text-rendering:optimizeLegibility; stroke:rgb(172,183,208); stroke-opacity:0.4941;">
      <path d="M495.0448 379.6069 C483.9492 379.6069 472.9083 384.1971 465.0018 393.181 C450.4069 409.7647 452.0191 435.0399 468.6028 449.6349 Q468.6028 449.6349 468.6028 449.6349 L468.6028 449.6349 C469.145 450.1121 469.6965 450.5719 470.2567 451.0145 L470.2567 451.0145 Q572.1478 536.1177 605.4177 590.0242 Q622.2236 648.178 733.3399 695.4235 L733.3399 695.4235 Q579.6591 800.0787 456.7878 933.1278 L456.7878 933.1278 C457.4193 932.4725 458.0578 931.8215 458.7034 931.1747 L458.7034 931.1747 C462.6986 927.1697 467.0008 923.4709 471.5717 920.1168 L471.5717 920.1168 Q628.6677 802.3081 815.3472 723.8792 L815.3472 723.8792 Q754.4753 636.3657 751.9109 579.0959 L751.9109 579.0959 Q646.0528 484.7018 521.4556 389.58 C513.8558 382.8917 504.4308 379.6069 495.0448 379.6069 Z" style="stroke:none;" />
    </g>
    <g transform="matrix(0.3267,0,0,-0.3267,30,533)" style="fill-opacity:0.2745; fill:rgb(0,0,0); text-rendering:optimizeLegibility; stroke:rgb(0,0,0); stroke-opacity:0.2745;">
      <path d="M495.0448 379.6069 C483.9492 379.6069 472.9083 384.1971 465.0018 393.181 C450.4069 409.7647 452.0191 435.0399 468.6028 449.6349 Q468.6028 449.6349 468.6028 449.6349 L468.6028 449.6349 C469.145 450.1121 469.6965 450.5719 470.2567 451.0145 L470.2567 451.0145 Q572.1478 536.1177 605.4177 590.0242 Q622.2236 648.178 733.3399 695.4235 L733.3399 695.4235 Q579.6591 800.0787 456.7878 933.1278 L456.7878 933.1278 C457.4193 932.4725 458.0578 931.8215 458.7034 931.1747 L458.7034 931.1747 C462.6986 927.1697 467.0008 923.4709 471.5717 920.1168 L471.5717 920.1168 Q628.6677 802.3081 815.3472 723.8792 L815.3472 723.8792 Q754.4753 636.3657 751.9109 579.0959 L751.9109 579.0959 Q646.0528 484.7018 521.4556 389.58 C513.8558 382.8917 504.4308 379.6069 495.0448 379.6069 Z" style="fill:none;" />
      <line x1="817.8237" x2="536.5815" y1="703.6914" style="fill:none;" y2="1008.86" />
      <line x1="817.8237" x2="495.0292" y1="703.6914" style="fill:none;" y2="419.6075" />
    </g>
    <g style="fill:rgb(64,64,64); text-rendering:optimizeLegibility; stroke:rgb(64,64,64);" transform="matrix(0.3267,0,0,-0.3267,30,533) translate(563.4048,267) rotate(-29.9891) translate(0,10)">
      <path d="M-19.8604 -1.0999 Q-39.4388 -1.0999 -60.823 2.3447 Q-87.7096 7.8345 -125.7596 7.8345 Q-144.8382 7.8345 -166.7234 6.4543 Q-167.7789 6.4076 -168.7887 6.4076 Q-183.7579 6.4076 -188.6626 16.6742 Q-205.4253 42.2903 -193.733 72.7177 Q-188.9934 81.896 -189.1302 95.4886 Q-187.6204 96.5898 -186.188 96.5898 Q-184.0717 96.5898 -182.1242 94.1861 Q-154.4385 68.6249 -106.1852 67.712 L-94.7854 86.2066 L-103.294 93.3186 Q-108.6948 98.0411 -91.066 115.8306 Q-88.1282 118.372 -85.6814 118.372 Q-82.0763 118.372 -79.5369 112.855 L-76.2201 113.4392 L-50.738 95.3662 Q-49.9626 89.3506 -46.6181 89.3506 Q-44.6285 89.3506 -41.7298 91.4794 L-15.2998 75.2421 L-16.375 67.7104 Q2.7885 51.2802 34.2131 49.5203 Q41.5385 50.7312 47.4527 50.7312 Q71.4178 50.7312 72.2101 30.848 Q71.6213 22.4675 52.9704 13.4422 Q20.3668 -1.0999 -19.8604 -1.0999 Z" style="stroke:none;" />
      <path d="M-19.8604 -1.0999 Q-39.4388 -1.0999 -60.823 2.3447 Q-87.7096 7.8345 -125.7596 7.8345 Q-144.8382 7.8345 -166.7234 6.4543 Q-167.7789 6.4076 -168.7887 6.4076 Q-183.7579 6.4076 -188.6626 16.6742 Q-205.4253 42.2903 -193.733 72.7177 Q-188.9934 81.896 -189.1302 95.4886 Q-187.6204 96.5898 -186.188 96.5898 Q-184.0717 96.5898 -182.1242 94.1861 Q-154.4385 68.6249 -106.1852 67.712 L-94.7854 86.2066 L-103.294 93.3186 Q-108.6948 98.0411 -91.066 115.8306 Q-88.1282 118.372 -85.6814 118.372 Q-82.0763 118.372 -79.5369 112.855 L-76.2201 113.4392 L-50.738 95.3662 Q-49.9626 89.3506 -46.6181 89.3506 Q-44.6285 89.3506 -41.7298 91.4794 L-15.2998 75.2421 L-16.375 67.7104 Q2.7885 51.2802 34.2131 49.5203 Q41.5385 50.7312 47.4527 50.7312 Q71.4178 50.7312 72.2101 30.848 Q71.6213 22.4675 52.9704 13.4422 Q20.3668 -1.0999 -19.8604 -1.0999 Z" style="fill:none; stroke:black;" />
    </g>
    <g style="fill:rgb(64,64,64); text-rendering:optimizeLegibility; stroke:rgb(64,64,64);" transform="matrix(0.3267,0,0,-0.3267,30,533) translate(563.4048,267) rotate(-29.9891)">
      <path d="M0 8.5 L13 8.5 C17.6944 8.5 21.5 4.6944 21.5 0 C21.5 -4.6944 17.6944 -8.5 13 -8.5 L-13 -8.5 C-17.6944 -8.5 -21.5 -4.6944 -21.5 -0 C-21.5 4.6944 -17.6944 8.5 -13 8.5 Z" style="stroke:none;" />
      <path d="M0 8.5 L13 8.5 C17.6944 8.5 21.5 4.6944 21.5 0 C21.5 -4.6944 17.6944 -8.5 13 -8.5 L-13 -8.5 C-17.6944 -8.5 -21.5 -4.6944 -21.5 -0 C-21.5 4.6944 -17.6944 8.5 -13 8.5 Z" style="fill:none; stroke:black;" />
    </g>
    <g style="fill:gray; text-rendering:optimizeLegibility; stroke:gray;" transform="matrix(0.3267,0,0,-0.3267,30,533) translate(735.9048,267)">
      <path d="M0 14.3 L0 14.3 C7.8977 14.3 14.3 7.8977 14.3 0 C14.3 -7.8977 7.8977 -14.3 0 -14.3 L-172.5 -14.3 C-180.3977 -14.3 -186.8 -7.8977 -186.8 -0 C-186.8 7.8977 -180.3977 14.3 -172.5 14.3 Z" style="stroke:none;" />
      <path d="M0 14.3 L0 14.3 C7.8977 14.3 14.3 7.8977 14.3 0 C14.3 -7.8977 7.8977 -14.3 0 -14.3 L-172.5 -14.3 C-180.3977 -14.3 -186.8 -7.8977 -186.8 -0 C-186.8 7.8977 -180.3977 14.3 -172.5 14.3 Z" style="fill:none; stroke:black;" />
    </g>
    <g style="fill:rgb(25,25,25); text-rendering:optimizeLegibility; stroke:rgb(25,25,25);" transform="matrix(0.3267,0,0,-0.3267,30,533)">
      <path d="M1316.7017 11.5 C1496.4703 11.5 1642.2017 157.2313 1642.2017 337 C1642.2017 516.7687 1496.4703 662.5 1316.7017 662.5 C1136.9329 662.5 991.2016 516.7687 991.2016 337 C991.2016 157.2313 1136.9329 11.5 1316.7017 11.5 ZM1316.7017 0 C1130.5817 0 979.7016 150.88 979.7016 337 C979.7016 523.1199 1130.5817 674 1316.7017 674 C1502.8215 674 1653.7017 523.1199 1653.7017 337 C1653.7017 150.88 1502.8215 0 1316.7017 0 Z" style="stroke:none;" />
      <path d="M1316.7017 23 C1490.119 23 1630.7017 163.5826 1630.7017 337 C1630.7017 510.4174 1490.119 651 1316.7017 651 C1143.2842 651 1002.7016 510.4174 1002.7016 337 C1002.7016 163.5826 1143.2842 23 1316.7017 23 ZM1316.7017 11.5 C1136.9329 11.5 991.2016 157.2313 991.2016 337 C991.2016 516.7687 1136.9329 662.5 1316.7017 662.5 C1496.4703 662.5 1642.2017 516.7687 1642.2017 337 C1642.2017 157.2313 1496.4703 11.5 1316.7017 11.5 Z" style="fill:rgb(255,204,102); stroke:none;" />
      <path d="M1316.7015 54.4 C1472.7772 54.4 1599.3015 180.9243 1599.3015 337 C1599.3015 493.0757 1472.7772 619.6 1316.7015 619.6 C1160.6259 619.6 1034.1016 493.0757 1034.1016 337 C1034.1016 180.9243 1160.6259 54.4 1316.7015 54.4 ZM1316.7017 23 C1143.2842 23 1002.7016 163.5826 1002.7016 337 C1002.7016 510.4174 1143.2842 651 1316.7017 651 C1490.119 651 1630.7017 510.4174 1630.7017 337 C1630.7017 163.5826 1490.119 23 1316.7017 23 Z" style="fill:gray; stroke:none;" />
      <circle style="fill:gray; stroke:none;" r="23" cx="1316.7017" cy="337" />
    </g>
    <g transform="matrix(0.3267,0,0,-0.3267,30,533)" style="fill-opacity:0.2745; fill:rgb(0,0,0); text-rendering:optimizeLegibility; stroke:rgb(0,0,0); stroke-opacity:0.2745;">
      <circle r="325.5" style="fill:none;" cx="1316.7016" cy="337" />
    </g>
    <g style="text-rendering:optimizeLegibility;" transform="matrix(0.3267,0,0,-0.3267,30,533)">
      <circle r="337" style="fill:none;" cx="1316.7016" cy="337" />
      <circle r="314" style="fill:none;" cx="1316.7016" cy="337" />
      <circle r="282.6" style="fill:none;" cx="1316.7016" cy="337" />
      <circle r="23" style="fill:none;" cx="1316.7017" cy="337" />
      <path d="M337 11.5 C516.7687 11.5 662.5 157.2313 662.5 337 C662.5 516.7687 516.7687 662.5 337 662.5 C157.2313 662.5 11.5 516.7687 11.5 337 C11.5 157.2313 157.2313 11.5 337 11.5 ZM337 0 C150.88 0 0 150.88 0 337 C0 523.1199 150.88 674 337 674 C523.1199 674 674 523.1199 674 337 C674 150.88 523.1199 0 337 0 Z" style="fill:rgb(25,25,25); stroke:none;" />
      <path d="M337 23 C510.4174 23 651 163.5826 651 337 C651 510.4174 510.4174 651 337 651 C163.5826 651 23 510.4174 23 337 C23 163.5826 163.5826 23 337 23 ZM337 11.5 C157.2313 11.5 11.5 157.2313 11.5 337 C11.5 516.7687 157.2313 662.5 337 662.5 C516.7687 662.5 662.5 516.7687 662.5 337 C662.5 157.2313 516.7687 11.5 337 11.5 Z" style="fill:rgb(255,204,102); stroke:none;" />
      <path d="M337 54.4 C493.0757 54.4 619.6 180.9243 619.6 337 C619.6 493.0757 493.0757 619.6 337 619.6 C180.9243 619.6 54.4 493.0757 54.4 337 C54.4 180.9243 180.9243 54.4 337 54.4 ZM337 23 C163.5826 23 23 163.5826 23 337 C23 510.4174 163.5826 651 337 651 C510.4174 651 651 510.4174 651 337 C651 163.5826 510.4174 23 337 23 Z" style="fill:gray; stroke:none;" />
      <circle style="fill:gray; stroke:none;" r="23" cx="337" cy="337" />
      <circle r="337" style="fill:none;" cx="337" cy="337" />
      <circle r="314" style="fill:none;" cx="337" cy="337" />
      <circle r="282.6" style="fill:none;" cx="337" cy="337" />
      <circle r="23" style="fill:none;" cx="337" cy="337" />
    </g>
    <g transform="matrix(0.3267,0,0,-0.3267,30,533)" style="fill-opacity:0.2745; fill:rgb(0,0,0); text-rendering:optimizeLegibility; stroke:rgb(0,0,0); stroke-opacity:0.2745;">
      <circle r="325.5" style="fill:none;" cx="337" cy="337" />
    </g>
    <g style="fill:rgb(0,0,102); text-rendering:optimizeLegibility; stroke:rgb(0,0,102);" transform="matrix(0.3267,0,0,-0.3267,30,533)">
      <path d="M588.6494 731.5421 L556.0499 684.7678 L460.7674 541.7286 L339.9258 356.7123 L354.0742 347.2877 L478.2448 530.0864 L573.5273 673.1255 L595.3748 708.0879" style="stroke:none;" />
      <path d="M720.0953 254.75 L550.2079 285.2388 L355.4985 326.6337 L358.5015 343.3663 L555.4542 314.4717 L725.3416 283.9829" style="stroke:none;" />
      <path d="M739.1457 324.9914 L1117.7883 756.7455 L1112.0162 775.6252 L1054.2159 767.204 L680.6421 709.5427 L630.9532 702.3032 L630.9532 702.3032 L643.1209 659.8696 L716.1268 405.2679 L739.1457 324.9914 ZM696.5892 255.7264 L681.7562 307.4551 L681.7563 307.4551 C682.5798 317.1941 683 327.048 683 337 C683 414.959 657.2171 486.896 613.7132 544.7492 L613.7132 544.7492 L585.6087 642.7612 L550.0427 766.7944 L612.4607 766.7944 L622.108 733.1503 L676.0574 741.0104 L1050.554 792.3387 L1104.5033 800.1988 L1100.1178 814.5434 L1143.1515 827.7001 L1185.5454 689.0359 L1142.5116 675.8792 L1136.6642 695.0053 L754.1761 258.8664 L735.9047 267 L736.1522 271.4276 L696.5892 255.7264 Z" style="stroke:none;" />
      <path d="M1100.1178 814.5434 L1143.1515 827.7001 L1185.5454 689.0359 L1142.5116 675.8792" style="fill:rgb(102,102,255); stroke:none;" />
      <path d="M800.1912 368.5478 Q799.7861 368.5771 799.3781 368.6933 Q799.7874 368.6091 800.1912 368.5478 ZM787.0513 337.9847 Q803.5056 365.0735 819.168 367.9453 Q847.598 380.3798 842.6281 397.194 Q838.2808 405.858 833.7575 405.858 Q826.6677 405.858 819.1456 384.5726 Q812.6475 368.3842 802.3085 368.3842 Q801.2693 368.3842 800.1912 368.5478 Q800.3277 368.5379 800.4639 368.5379 Q806.868 368.5379 812.5415 390.3643 Q815.7988 420.7229 834.3505 421.0609 Q836.7696 420.7108 838.7894 420.7108 Q855.7067 420.7108 844.6247 445.2657 L939.3575 511.6547 L885.9006 409.0676 L885.9005 409.0675 L885.9005 409.0675 Q879.0136 415.1072 873.7416 415.1072 Q863.2152 415.1072 859.1272 391.0283 Q852.9806 363.2036 826.1849 361.7916 Q801.453 358.5698 787.0513 337.9847 Z" style="fill:url(#linearGradient1); stroke:none;" />
      <path d="M885.9005 409.0675 L844.6247 445.2657 L1117.7883 756.7455 L1147.5433 736.3782 L1136.6642 695.0053 L885.9005 409.0675 Z" style="fill:url(#linearGradient2); stroke:none;" />
      <path d="M931.6903 768.2 Q931.4578 768.3557 931.2735 768.5533 Q931.477 768.3703 931.6903 768.2 ZM956.7736 752.1638 Q950.1229 752.7308 943.8032 755.9177 Q933.4315 760.2625 921.7211 760.2625 Q914.1523 760.2625 906.0241 758.4474 L906.0241 758.4474 Q922.1439 762.811 932.5956 762.811 Q938.8124 762.811 943.0238 761.2672 Q950.406 760.033 956.1704 760.033 Q969.6539 760.033 974.2858 766.7859 Q977.5059 774.591 970.8113 774.591 Q965.189 774.591 952.5734 769.0857 Q944.6507 765.9147 939.1893 765.9147 Q934.5529 765.9147 931.6903 768.2 L931.6903 768.2 Q932.5554 767.6205 934.0879 767.6205 Q939.2206 767.6205 951.8398 774.1205 Q957.824 778.1537 963.0661 780.3477 L963.0661 780.3477 L978.7311 782.4947 L978.7311 782.4947 Q980.9389 781.9791 982.9185 780.898 Q987.2008 777.5318 990.9927 777.5318 Q996.8723 777.5318 1001.5728 785.6254 L1001.5728 785.6254 L1006.3576 786.2812 L1021.156 775.2215 L1010.1285 760.3991 L1010.1285 760.3991 L1007.1057 759.9326 L1007.1057 759.9326 Q1005.2513 765.3009 999.4851 765.3009 Q992.8105 765.3009 980.8945 758.1081 Q977.2996 756.1247 973.7866 754.7897 L973.7866 754.7897 L956.7737 752.1638 Z" style="fill:url(#linearGradient3); stroke:none;" />
      <path d="M1007.3451 759.9695 L1003.5673 785.8987 L1003.5673 785.8987 L1050.554 792.3387 L1104.5033 800.1988 L1130.7845 791.1937 L1112.0162 775.6252 L1054.2159 767.204 L1007.3451 759.9695 Z" style="fill:url(#linearGradient4); stroke:none;" />
      <path d="M739.1457 324.9914 L1117.7883 756.7455 L1112.0162 775.6252 L1054.2159 767.204 L680.6421 709.5427 L630.9532 702.3032 L630.9532 702.3032 L643.1209 659.8696 L716.1268 405.2679 L739.1457 324.9914 ZM696.5892 255.7264 L681.7562 307.4551 L681.7563 307.4551 C682.5798 317.1941 683 327.048 683 337 C683 414.959 657.2171 486.896 613.7132 544.7492 L613.7132 544.7492 L585.6087 642.7612 L550.0427 766.7944 L612.4607 766.7944 L622.108 733.1503 L676.0574 741.0104 L1050.554 792.3387 L1104.5033 800.1988 L1100.1178 814.5434 L1143.1515 827.7001 L1185.5454 689.0359 L1142.5116 675.8792 L1136.6642 695.0053 L754.1761 258.8664 L735.9047 267 L736.1522 271.4276 L696.5892 255.7264 Z" style="fill:none; stroke:black;" />
      <circle style="fill:white; stroke:none;" r="20" cx="735.9047" cy="267" />
      <circle style="fill:none; stroke:black;" r="20" cx="735.9047" cy="267" />
      <path d="M720.0953 254.75 L550.2079 285.2388 L355.4985 326.6337 L358.5015 343.3663 L555.4542 314.4717 L725.3416 283.9829" style="fill:none; stroke:black;" />
      <path d="M588.6494 731.5421 L556.0499 684.7678 L460.7674 541.7286 L339.9258 356.7123 L354.0742 347.2877 L478.2448 530.0864 L573.5273 673.1255 L595.3748 708.0879" style="fill:none; stroke:black;" />
      <path d="M1145.4354 666.3162 L1188.4691 679.4729 L1215.1481 592.2101 C1241.8645 504.8246 1279.1351 421.0223 1326.135 342.6578 L1326.1351 342.6578 C1329.0806 337.7466 1327.7653 331.397 1323.1111 328.0602 C1318.4568 324.7234 1312.021 325.5158 1308.3152 329.8819 L1308.3151 329.8819 C1246.4247 402.8003 1200.0775 487.5898 1172.1143 579.0533 Z" style="stroke:none;" />
      <path d="M1145.4354 666.3162 L1188.4691 679.4729 L1215.1481 592.2101 C1241.8645 504.8246 1279.1351 421.0223 1326.135 342.6578 L1326.1351 342.6578 C1329.0806 337.7466 1327.7653 331.397 1323.1111 328.0602 C1318.4568 324.7234 1312.021 325.5158 1308.3152 329.8819 L1308.3151 329.8819 C1246.4247 402.8003 1200.0775 487.5898 1172.1143 579.0533 Z" style="fill:none; stroke:black;" />
      <path d="M1131.2815 854.7252 L1226.775 854.7252 C1235.0593 854.7252 1241.775 861.4409 1241.775 869.7252 C1241.775 878.0095 1235.0593 884.7252 1226.775 884.7252 L1122.1095 884.7252 L1119.3862 893.6328 L1082.951 882.4934 L1097.5696 834.6782 L1134.0048 845.8175 Z" style="fill:gray; stroke:none;" />
      <path d="M1097.1941 824.1064 L1140.2277 837.2631 C1142.8685 838.0705 1145.6637 836.5842 1146.4711 833.9435 C1147.2784 831.3027 1145.7922 828.5074 1143.1515 827.7001 L1100.1178 814.5434 C1097.4769 813.736 1094.6818 815.2223 1093.8744 817.863 C1093.067 820.5038 1094.5532 823.2991 1097.194 824.1064 Z" style="fill:gray; stroke:none;" />
      <path d="M1140.2278 837.2632 L1136.9285 836.2545 L1100.4933 825.1151 L1097.1941 824.1064" style="fill:gray; stroke:none;" />
      <path d="M1136.9285 836.2545 L1134.0048 845.8175 L1097.5696 834.6782 L1100.4933 825.1151" style="fill:gray; stroke:none;" />
      <path d="M1142.5116 675.8792 L1185.5453 689.0359 C1188.1862 689.8433 1190.9813 688.357 1191.7887 685.7162 C1192.5961 683.0755 1191.1099 680.2802 1188.4691 679.4729 L1145.4354 666.3162 C1142.7946 665.5088 1139.9994 666.9951 1139.192 669.6358 C1138.3846 672.2766 1139.8708 675.0718 1142.5116 675.8792" style="fill:gray; stroke:none;" />
      <circle style="fill:white; stroke:none;" r="12.7" cx="1226.7751" cy="869.7251" />
      <path d="M1131.2815 854.7252 L1226.775 854.7252 C1235.0593 854.7252 1241.775 861.4409 1241.775 869.7252 C1241.775 878.0095 1235.0593 884.7252 1226.775 884.7252 L1122.1095 884.7252 L1119.3862 893.6328 L1082.951 882.4934 L1097.5696 834.6782 L1134.0048 845.8175 Z" style="fill:none; stroke:black;" />
      <circle style="fill:none; stroke:black;" r="12.7" cx="1226.7751" cy="869.7251" />
      <path d="M1097.1941 824.1064 L1140.2277 837.2631 C1142.8685 838.0705 1145.6637 836.5842 1146.4711 833.9435 C1147.2784 831.3027 1145.7922 828.5074 1143.1515 827.7001 L1100.1178 814.5434 C1097.4769 813.736 1094.6818 815.2223 1093.8744 817.863 C1093.067 820.5038 1094.5532 823.2991 1097.194 824.1064 Z" style="fill:none; stroke:black;" />
      <path d="M1140.2278 837.2632 L1136.9285 836.2545 L1100.4933 825.1151 L1097.1941 824.1064" style="fill:none; stroke:black;" />
      <path d="M1136.9285 836.2545 L1134.0048 845.8175 L1097.5696 834.6782 L1100.4933 825.1151" style="fill:none; stroke:black;" />
      <path d="M1142.5116 675.8792 L1185.5453 689.0359 C1188.1862 689.8433 1190.9813 688.357 1191.7887 685.7162 C1192.5961 683.0755 1191.1099 680.2802 1188.4691 679.4729 L1145.4354 666.3162 C1142.7946 665.5088 1139.9994 666.9951 1139.192 669.6358 C1138.3846 672.2766 1139.8708 675.0718 1142.5116 675.8792" style="fill:none; stroke:black;" />
      <path d="M563.8412 916.397 L537.6949 908.8997 L578.4429 766.7944 L606.7391 766.7944 Z" style="fill:gray; stroke:none;" />
      <path d="M563.8412 916.397 L537.6949 908.8997 L578.4429 766.7944 L606.7391 766.7944 Z" style="fill:none; stroke:black;" />
      <path d="M561.0848 926.0097 L517.2513 913.4406 L522.764 894.2154 L566.5976 906.7844 Z" style="fill:gray; stroke:none;" />
      <path d="M561.0848 926.0097 L517.2513 913.4406 L522.764 894.2154 L566.5976 906.7844 Z" style="fill:none; stroke:black;" />
      <path d="M-78 -18 L-95 -18 L-56 -55 Q-50 -63 -40 -61 L25 -50 Q32 -49 39 -43 L67 -20 L48 -20 L26 -38 Q20 -43 15 -44 L-35 -52 Q-40 -53 -44 -49 Z" style="fill:gray; stroke:none;" transform="translate(536.5816,958.86)" />
      <path d="M-78 -18 L-95 -18 L-56 -55 Q-50 -63 -40 -61 L25 -50 Q32 -49 39 -43 L67 -20 L48 -20 L26 -38 Q20 -43 15 -44 L-35 -52 Q-40 -53 -44 -49 Z" style="fill:none; stroke:black;" transform="translate(536.5816,958.86)" />
      <path d="M-93.9178 4.4397 Q-55 -4 80.8231 1.9883 Q124.8609 2.5 135.5 -5.5 Q148 -12 147 -24 Q144 -29 133.3722 -30.2481 Q120 -31 101.676 -29 Q88 -27 60.1592 -31 Q45 -33 26.4039 -29 Q10 -28 -6.1441 -36 Q-30 -50 -40 -49.5 Q-52 -50 -87 -34 Q-109 -28 -117 -26 Q-130 -18 -128 -8 Q-122 9 -93.9178 4.4397 Z" style="fill:black; stroke:none;" transform="translate(536.5816,958.86)" />
    </g>
    <g style="text-rendering:optimizeLegibility;" transform="matrix(0.3267,0,0,-0.3267,30,533) translate(1226.7751,869.7251) rotate(8)">
      <path d="M-28.536 -124 L-28.536 -154 L31.407 -154 C52.9088 -154 72.7767 -142.5272 83.5247 -123.9045 L92.9143 -107.6354 C110.2292 -77.6344 102.4247 -39.4291 74.7309 -18.6225 L9.01 11.9925 C2.3868 16.9686 -7.0163 15.6333 -11.9925 9.01 C-16.9686 2.3868 -15.6333 -7.0163 -9.01 -11.9925 L56.7108 -42.6074 C72.2768 -54.3023 76.6636 -75.7766 66.9313 -92.6394 L57.5416 -108.9085 C52.152 -118.2469 42.1891 -124 31.407 -124 Z" style="stroke:none;" />
      <path d="M0 0 Q5 -32 11.67 -27.39 Q13.1 -27 16.05 -24.96 Q25 -21 35.56 -20 Q39 -19.7 44.26 -19.95 Q44 -13 58.5 3.38 Q74 23 90.47 26.71 Q74 39.3 68 32.86 Q64 28.8 62.6 28.22 Q48 17 23.76 24.5 Q15 29 12.99 32.52 Q-5 33 0 0" style="stroke:none;" transform="translate(33.582,-73.392) rotate(14.8684) translate(53.505,0)" />
      <path d="M44.26 -19.95 Q44 -13 58.5 3.38 Q74 23 90.47 26.71 Q94 23.47 94.53 20.54 Q85 25 91.52 13.2 Q94 11 92.82 9.01 Q90.5 6 84.6 6.69 Q71 4 62.66 -17.57 Q61 -20.5 57.47 -21.92 Q50 -22 44.26 -19.95" style="fill:rgb(64,64,64); stroke:none;" transform="translate(33.582,-73.392) rotate(14.8684) translate(53.505,0)" />
      <path d="M94.53 20.54 Q85 25 91.52 13.2 Q94 11 92.82 9.01 Q90.5 6 84.6 6.69 Q71 4 62.66 -17.57 Q58 -37 46.54 -53.42 Q45 -54.4 42.24 -54.55 Q31 -53 27.34 -61.32 Q22 -73 27.66 -80.16 Q32.5 -83 36.87 -77.52 Q39 -73 42.67 -69.63 Q47 -66 35.22 -81.13 Q29 -86.5 27.23 -89.23 Q24 -93 28.87 -107.63 Q32.5 -118 38.15 -119.76 Q44 -116 39.01 -101.2 Q36.5 -92 47.56 -75.36 Q59 -61 66 -46 Q71 -33 77 -20.56 Q84 -12.2 95.85 -10.01 Q97.5 -9 98.45 -9.36 Q108 -4 108.38 0.18 Q110 10.5 94.53 20.54" style="fill:gray; stroke:none;" transform="translate(33.582,-73.392) rotate(14.8684) translate(53.505,0)" />
      <path d="M44.26 -19.95 Q44 -13 58.5 3.38 Q74 23 90.47 26.71 Q94 23.47 94.53 20.54 Q85 25 91.52 13.2 Q94 11 92.82 9.01 Q90.5 6 84.6 6.69 Q71 4 62.66 -17.57 Q61 -20.5 57.47 -21.92 Q50 -22 44.26 -19.95" style="fill:none;" transform="translate(33.582,-73.392) rotate(14.8684) translate(53.505,0)" />
      <path d="M94.53 20.54 Q85 25 91.52 13.2 Q94 11 92.82 9.01 Q90.5 6 84.6 6.69 Q71 4 62.66 -17.57 Q58 -37 46.54 -53.42 Q45 -54.4 42.24 -54.55 Q31 -53 27.34 -61.32 Q22 -73 27.66 -80.16 Q32.5 -83 36.87 -77.52 Q39 -73 42.67 -69.63 Q47 -66 35.22 -81.13 Q29 -86.5 27.23 -89.23 Q24 -93 28.87 -107.63 Q32.5 -118 38.15 -119.76 Q44 -116 39.01 -101.2 Q36.5 -92 47.56 -75.36 Q59 -61 66 -46 Q71 -33 77 -20.56 Q84 -12.2 95.85 -10.01 Q97.5 -9 98.45 -9.36 Q108 -4 108.38 0.18 Q110 10.5 94.53 20.54" style="fill:none;" transform="translate(33.582,-73.392) rotate(14.8684) translate(53.505,0)" />
    </g>
    <g transform="matrix(0.3267,0,0,-0.3267,30,533)" style="fill-opacity:0.4706; fill:rgb(255,255,75); text-rendering:optimizeLegibility; stroke:rgb(255,255,75); stroke-opacity:0.4706;">
      <line x1="735.9047" x2="592.591" y1="267" style="fill:none;" y2="766.7944" />
      <line x1="1316.7017" x2="1263.3438" y1="337" style="fill:none;" y2="511.5256" />
      <line x1="1273.6678" x2="1101.1686" y1="323.8433" style="fill:none;" y2="888.063" />
      <line x1="735.9047" x2="1147.5433" y1="267" style="fill:none;" y2="736.3782" />
      <line x1="607.4578" x2="1130.7845" y1="714.9479" style="fill:none;" y2="791.1937" />
      <line x1="357" x2="735.9047" y1="335" style="fill:none;" y2="267" />
      <line x1="347" x2="592.0121" y1="352" style="fill:none;" y2="719.815" />
      <line x1="1106.775" x2="1226.775" y1="869.7252" style="fill:none;" y2="869.7252" />
    </g>
    <g style="text-rendering:optimizeLegibility; stroke-width:3;" transform="matrix(0.3267,0,0,-0.3267,30,533)">
      <path d="M888.0735 434.1243 L891.9587 438.5545 L893.1727 440.0098 Q894.9653 442.0538 894.8921 443.4515 Q894.819 444.8492 892.7416 447.2437 Q890.6207 449.6995 889.4659 449.6995 Q889.4473 449.6995 889.429 449.6989 Q888.2714 449.6586 885.9273 446.9857 L881.4012 441.8247 L888.0735 434.1243 ZM878.0691 445.6796 L882.4086 450.6278 Q884.5095 453.0233 884.505 454.3689 Q884.5005 455.7146 882.3491 458.1904 Q880.8281 459.9511 879.395 459.9511 Q878.1364 459.9511 876.9455 458.5932 L871.8841 452.8218 L878.0691 445.6796 ZM888.3328 425.6992 L864.5473 453.1529 L873.7292 463.6228 Q876.8107 467.1364 879.2154 467.1364 Q879.33 467.1364 879.4431 467.1285 Q881.9286 466.9531 885.5726 462.7429 Q889.9803 457.6501 888.0099 453.6023 L888.0876 453.5013 Q889.3736 454.4835 890.7936 454.4835 Q893.6135 454.4835 896.9623 450.6108 Q900.6026 446.4202 900.8391 443.3248 Q901.0756 440.2294 898.0095 436.7333 L888.3328 425.6992 ZM906.1132 445.9737 L882.3276 473.4273 L885.8723 477.4691 L909.6578 450.0155 L906.1132 445.9737 ZM912.6371 456.6644 Q912.0175 456.6644 911.4476 456.8551 Q907.8726 458.0514 897.8683 469.6067 Q891.9833 476.4039 891.8521 480.5197 Q891.7207 484.6355 897.2039 490.8878 Q901.0071 495.2246 903.7894 495.2246 Q903.9325 495.2246 904.0729 495.2131 Q906.9431 494.9786 911.4639 489.754 L912.0297 489.1432 L908.4688 485.0829 L907.8569 485.7832 Q905.5488 488.4524 904.2096 488.4524 Q904.1898 488.4524 904.1702 488.4518 Q902.8259 488.4118 900.3682 485.6094 Q897.0669 481.845 897.4287 479.8997 Q897.7905 477.9543 902.8609 472.1004 Q909.6968 464.2074 911.55 463.4413 Q911.8666 463.3103 912.2243 463.3103 Q913.9603 463.3103 916.6638 466.3932 Q919.3 469.3991 919.3912 471.1027 Q919.4824 472.8062 917.1049 475.5457 L916.0166 476.7456 L919.5774 480.8059 L920.3919 479.8625 Q925.3611 474.1302 925.3952 470.8278 Q925.4293 467.5253 920.5545 461.9667 Q915.9045 456.6644 912.6371 456.6644 ZM935.3041 479.2591 L926.2272 489.7392 L904.7862 499.0361 L908.8905 503.7161 L917.9841 499.7008 Q918.7374 499.3511 920.7081 498.3755 L922.0683 497.7226 L923.4123 497.0511 L923.5096 497.1621 L922.9443 498.7214 L922.379 500.2808 Q921.592 502.3455 921.253 503.4282 L917.8291 513.9085 L921.9902 518.6532 L929.7719 493.781 L938.8487 483.3009 L935.3041 479.2591 ZM947.0071 495.8553 Q946.3875 495.8553 945.8176 496.0461 Q942.2426 497.2423 932.2382 508.7976 Q926.3533 515.5948 926.222 519.7106 Q926.0906 523.8265 931.5739 530.0788 Q935.3771 534.4155 938.1594 534.4155 Q938.3024 534.4155 938.4428 534.4041 Q941.313 534.1696 945.8338 528.9449 L946.3996 528.3342 L942.8387 524.2739 L942.2268 524.9742 Q939.9186 527.6434 938.5795 527.6434 Q938.5597 527.6434 938.5402 527.6428 Q937.1958 527.6028 934.7381 524.8003 Q931.4368 521.0359 931.7986 519.0906 Q932.1604 517.1453 937.2308 511.2914 Q944.0667 503.3983 945.9199 502.6322 Q946.2365 502.5013 946.5942 502.5013 Q948.3301 502.5013 951.0338 505.5841 Q953.6699 508.5901 953.7611 510.2936 Q953.8523 511.9971 951.4749 514.7366 L950.3865 515.9365 L953.9473 519.9968 L954.7618 519.0535 Q959.731 513.3211 959.7651 510.0187 Q959.7993 506.7162 954.9244 501.1576 Q950.2744 495.8553 947.0071 495.8553 ZM964.6694 512.7434 L940.8839 540.197 L944.4285 544.2389 L964.1686 521.4619 L972.9288 531.4509 L976.9741 526.7741 L964.6694 512.7434 ZM978.3946 528.3939 L954.6091 555.8475 L967.3925 570.424 L971.1846 566.0511 L961.9459 555.5164 L968.0803 548.4349 L976.8405 558.4239 L980.1725 554.569 L971.4124 544.5801 L978.1353 536.8189 L987.4551 547.446 L991.2591 543.0628 L978.3946 528.3939 ZM1000.9145 554.0726 L977.129 581.5262 L989.4987 595.631 L993.2908 591.2581 L984.4658 581.1951 L990.8768 573.7892 L999.2477 583.3342 L1003.0516 578.951 L994.6808 569.4061 L1004.4591 558.1144 L1000.9145 554.0726 ZM1014.499 579.927 Q1016.2315 579.927 1019.363 583.4977 Q1022.6562 587.2529 1022.1362 589.3615 Q1021.6163 591.4701 1015.6572 598.3487 Q1009.6747 605.2479 1007.9648 605.7983 Q1007.7548 605.866 1007.5186 605.866 Q1005.8316 605.866 1002.8078 602.418 Q999.2307 598.3392 999.7997 596.3102 Q1000.3688 594.2812 1007.2825 586.2873 Q1012.4035 580.3727 1014.1556 579.9652 Q1014.3198 579.927 1014.499 579.927 ZM1014.9739 573.4392 Q1014.5604 573.4392 1014.165 573.5183 Q1010.5757 574.2362 1003.428 582.4846 Q994.9161 592.3055 994.2016 596.491 Q993.4871 600.6765 999.2055 607.197 Q1003.6718 612.2897 1007.003 612.2897 Q1007.4711 612.2897 1007.9167 612.1892 Q1011.5341 611.373 1019.0091 602.7395 Q1027.182 593.314 1027.8378 589.1801 Q1028.4935 585.0461 1022.84 578.5995 Q1018.3145 573.4392 1014.9739 573.4392 ZM1025.3561 609.0525 L1030.4418 614.8516 Q1032.2668 616.9327 1032.0367 618.5661 Q1031.8068 620.1996 1029.3126 623.0905 Q1026.7715 626.0226 1025.5121 626.2926 Q1025.3608 626.325 1025.2028 626.325 Q1024.0442 626.325 1022.5167 624.5834 L1017.1795 618.4976 L1025.3561 609.0525 ZM1033.6282 591.375 L1009.8427 618.8287 L1019.049 629.3263 Q1022.2702 632.9993 1024.9413 632.9993 Q1025.1219 632.9993 1025.3002 632.9825 Q1028.1121 632.7172 1032.0833 628.1219 Q1035.6884 623.9622 1036.3665 621.6903 Q1037.0447 619.4185 1035.5438 616.5459 L1035.6957 616.3636 Q1037.0093 617.6474 1038.4828 617.6474 Q1040.7607 617.6474 1043.4207 614.5794 L1048.6665 608.5226 L1045.1218 604.4808 L1040.78 609.483 Q1038.6987 611.8928 1036.8822 611.8928 Q1035.4949 611.8928 1034.262 610.4869 L1029.1599 604.6693 L1037.1729 595.4168 L1033.6282 591.375 ZM1051.323 611.5517 L1027.5375 639.0054 L1040.3208 653.5818 L1044.1129 649.2089 L1034.8743 638.6743 L1041.0087 631.5928 L1049.7688 641.5817 L1053.1008 637.7269 L1044.3407 627.7379 L1051.0636 619.9767 L1060.3834 630.6038 L1064.1874 626.2206 L1051.323 611.5517 ZM1066.2854 631.3578 Q1063.5072 631.3578 1059.4198 636.0693 L1058.5385 637.0549 L1061.9858 640.9857 L1062.5046 640.4162 Q1064.8815 637.6759 1066.1217 637.6759 Q1066.181 637.6759 1066.2378 637.6822 Q1067.4805 637.8195 1070.5303 641.2972 Q1072.915 644.0164 1072.9271 645.5112 Q1072.9391 647.006 1070.6005 649.695 Q1068.8821 651.693 1067.8101 651.774 Q1067.7627 651.7776 1067.7141 651.7776 Q1066.6602 651.7776 1064.9705 650.1002 L1062.8519 648.0637 Q1058.0995 643.3998 1055.6339 643.3998 Q1055.6237 643.3998 1055.6134 643.3999 Q1053.147 643.4194 1049.0664 648.1271 Q1044.9081 652.9355 1045.0071 656.2358 Q1045.1061 659.536 1049.551 664.6044 Q1053.7689 669.4139 1056.5054 669.6075 Q1056.6246 669.616 1056.7456 669.616 Q1059.4026 669.616 1062.9327 665.5498 L1063.8448 664.5045 L1060.3813 660.5552 Q1060.0216 660.9033 1059.8698 661.0856 Q1057.7927 663.194 1056.7043 663.194 Q1056.675 663.194 1056.6465 663.1924 Q1055.5563 663.1341 1053.4149 660.6924 Q1050.9004 657.8252 1050.7201 656.257 Q1050.5398 654.6888 1052.4418 652.4973 Q1054.5306 650.0889 1055.6135 650.0889 Q1055.6985 650.0889 1055.7773 650.1038 Q1056.8602 650.3077 1060.63 654.0375 Q1065.0986 658.447 1067.5425 658.447 Q1067.5474 658.447 1067.5521 658.447 Q1069.9968 658.4384 1073.8514 653.9944 Q1078.5865 648.5165 1078.5343 645.2815 Q1078.4822 642.0466 1073.583 636.4602 Q1069.1786 631.438 1066.3766 631.3591 Q1066.3312 631.3578 1066.2854 631.3578 ZM1087.5093 652.8138 L1067.7655 675.6104 L1062.3796 669.469 L1058.3379 674.1262 L1072.8571 690.6819 L1076.8987 686.0247 L1071.3182 679.6614 L1091.062 656.8649 L1087.5093 652.8138 Z" style="fill:none;" />
      <path d="M888.0735 434.1243 L891.9587 438.5545 L893.1727 440.0098 Q894.9653 442.0538 894.8921 443.4515 Q894.819 444.8492 892.7416 447.2437 Q890.6207 449.6995 889.4659 449.6995 Q889.4473 449.6995 889.429 449.6989 Q888.2714 449.6586 885.9273 446.9857 L881.4012 441.8247 L888.0735 434.1243 ZM878.0691 445.6796 L882.4086 450.6278 Q884.5095 453.0233 884.505 454.3689 Q884.5005 455.7146 882.3491 458.1904 Q880.8281 459.9511 879.395 459.9511 Q878.1364 459.9511 876.9455 458.5932 L871.8841 452.8218 L878.0691 445.6796 ZM888.3328 425.6992 L864.5473 453.1529 L873.7292 463.6228 Q876.8107 467.1364 879.2154 467.1364 Q879.33 467.1364 879.4431 467.1285 Q881.9286 466.9531 885.5726 462.7429 Q889.9803 457.6501 888.0099 453.6023 L888.0876 453.5013 Q889.3736 454.4835 890.7936 454.4835 Q893.6135 454.4835 896.9623 450.6108 Q900.6026 446.4202 900.8391 443.3248 Q901.0756 440.2294 898.0095 436.7333 L888.3328 425.6992 ZM906.1132 445.9737 L882.3276 473.4273 L885.8723 477.4691 L909.6578 450.0155 L906.1132 445.9737 ZM912.6371 456.6644 Q912.0175 456.6644 911.4476 456.8551 Q907.8726 458.0514 897.8683 469.6067 Q891.9833 476.4039 891.8521 480.5197 Q891.7207 484.6355 897.2039 490.8878 Q901.0071 495.2246 903.7894 495.2246 Q903.9325 495.2246 904.0729 495.2131 Q906.9431 494.9786 911.4639 489.754 L912.0297 489.1432 L908.4688 485.0829 L907.8569 485.7832 Q905.5488 488.4524 904.2096 488.4524 Q904.1898 488.4524 904.1702 488.4518 Q902.8259 488.4118 900.3682 485.6094 Q897.0669 481.845 897.4287 479.8997 Q897.7905 477.9543 902.8609 472.1004 Q909.6968 464.2074 911.55 463.4413 Q911.8666 463.3103 912.2243 463.3103 Q913.9603 463.3103 916.6638 466.3932 Q919.3 469.3991 919.3912 471.1027 Q919.4824 472.8062 917.1049 475.5457 L916.0166 476.7456 L919.5774 480.8059 L920.3919 479.8625 Q925.3611 474.1302 925.3952 470.8278 Q925.4293 467.5253 920.5545 461.9667 Q915.9045 456.6644 912.6371 456.6644 ZM935.3041 479.2591 L926.2272 489.7392 L904.7862 499.0361 L908.8905 503.7161 L917.9841 499.7008 Q918.7374 499.3511 920.7081 498.3755 L922.0683 497.7226 L923.4123 497.0511 L923.5096 497.1621 L922.9443 498.7214 L922.379 500.2808 Q921.592 502.3455 921.253 503.4282 L917.8291 513.9085 L921.9902 518.6532 L929.7719 493.781 L938.8487 483.3009 L935.3041 479.2591 ZM947.0071 495.8553 Q946.3875 495.8553 945.8176 496.0461 Q942.2426 497.2423 932.2382 508.7976 Q926.3533 515.5948 926.222 519.7106 Q926.0906 523.8265 931.5739 530.0788 Q935.3771 534.4155 938.1594 534.4155 Q938.3024 534.4155 938.4428 534.4041 Q941.313 534.1696 945.8338 528.9449 L946.3996 528.3342 L942.8387 524.2739 L942.2268 524.9742 Q939.9186 527.6434 938.5795 527.6434 Q938.5597 527.6434 938.5402 527.6428 Q937.1958 527.6028 934.7381 524.8003 Q931.4368 521.0359 931.7986 519.0906 Q932.1604 517.1453 937.2308 511.2914 Q944.0667 503.3983 945.9199 502.6322 Q946.2365 502.5013 946.5942 502.5013 Q948.3301 502.5013 951.0338 505.5841 Q953.6699 508.5901 953.7611 510.2936 Q953.8523 511.9971 951.4749 514.7366 L950.3865 515.9365 L953.9473 519.9968 L954.7618 519.0535 Q959.731 513.3211 959.7651 510.0187 Q959.7993 506.7162 954.9244 501.1576 Q950.2744 495.8553 947.0071 495.8553 ZM964.6694 512.7434 L940.8839 540.197 L944.4285 544.2389 L964.1686 521.4619 L972.9288 531.4509 L976.9741 526.7741 L964.6694 512.7434 ZM978.3946 528.3939 L954.6091 555.8475 L967.3925 570.424 L971.1846 566.0511 L961.9459 555.5164 L968.0803 548.4349 L976.8405 558.4239 L980.1725 554.569 L971.4124 544.5801 L978.1353 536.8189 L987.4551 547.446 L991.2591 543.0628 L978.3946 528.3939 ZM1000.9145 554.0726 L977.129 581.5262 L989.4987 595.631 L993.2908 591.2581 L984.4658 581.1951 L990.8768 573.7892 L999.2477 583.3342 L1003.0516 578.951 L994.6808 569.4061 L1004.4591 558.1144 L1000.9145 554.0726 ZM1014.499 579.927 Q1016.2315 579.927 1019.363 583.4977 Q1022.6562 587.2529 1022.1362 589.3615 Q1021.6163 591.4701 1015.6572 598.3487 Q1009.6747 605.2479 1007.9648 605.7983 Q1007.7548 605.866 1007.5186 605.866 Q1005.8316 605.866 1002.8078 602.418 Q999.2307 598.3392 999.7997 596.3102 Q1000.3688 594.2812 1007.2825 586.2873 Q1012.4035 580.3727 1014.1556 579.9652 Q1014.3198 579.927 1014.499 579.927 ZM1014.9739 573.4392 Q1014.5604 573.4392 1014.165 573.5183 Q1010.5757 574.2362 1003.428 582.4846 Q994.9161 592.3055 994.2016 596.491 Q993.4871 600.6765 999.2055 607.197 Q1003.6718 612.2897 1007.003 612.2897 Q1007.4711 612.2897 1007.9167 612.1892 Q1011.5341 611.373 1019.0091 602.7395 Q1027.182 593.314 1027.8378 589.1801 Q1028.4935 585.0461 1022.84 578.5995 Q1018.3145 573.4392 1014.9739 573.4392 ZM1025.3561 609.0525 L1030.4418 614.8516 Q1032.2668 616.9327 1032.0367 618.5661 Q1031.8068 620.1996 1029.3126 623.0905 Q1026.7715 626.0226 1025.5121 626.2926 Q1025.3608 626.325 1025.2028 626.325 Q1024.0442 626.325 1022.5167 624.5834 L1017.1795 618.4976 L1025.3561 609.0525 ZM1033.6282 591.375 L1009.8427 618.8287 L1019.049 629.3263 Q1022.2702 632.9993 1024.9413 632.9993 Q1025.1219 632.9993 1025.3002 632.9825 Q1028.1121 632.7172 1032.0833 628.1219 Q1035.6884 623.9622 1036.3665 621.6903 Q1037.0447 619.4185 1035.5438 616.5459 L1035.6957 616.3636 Q1037.0093 617.6474 1038.4828 617.6474 Q1040.7607 617.6474 1043.4207 614.5794 L1048.6665 608.5226 L1045.1218 604.4808 L1040.78 609.483 Q1038.6987 611.8928 1036.8822 611.8928 Q1035.4949 611.8928 1034.262 610.4869 L1029.1599 604.6693 L1037.1729 595.4168 L1033.6282 591.375 ZM1051.323 611.5517 L1027.5375 639.0054 L1040.3208 653.5818 L1044.1129 649.2089 L1034.8743 638.6743 L1041.0087 631.5928 L1049.7688 641.5817 L1053.1008 637.7269 L1044.3407 627.7379 L1051.0636 619.9767 L1060.3834 630.6038 L1064.1874 626.2206 L1051.323 611.5517 ZM1066.2854 631.3578 Q1063.5072 631.3578 1059.4198 636.0693 L1058.5385 637.0549 L1061.9858 640.9857 L1062.5046 640.4162 Q1064.8815 637.6759 1066.1217 637.6759 Q1066.181 637.6759 1066.2378 637.6822 Q1067.4805 637.8195 1070.5303 641.2972 Q1072.915 644.0164 1072.9271 645.5112 Q1072.9391 647.006 1070.6005 649.695 Q1068.8821 651.693 1067.8101 651.774 Q1067.7627 651.7776 1067.7141 651.7776 Q1066.6602 651.7776 1064.9705 650.1002 L1062.8519 648.0637 Q1058.0995 643.3998 1055.6339 643.3998 Q1055.6237 643.3998 1055.6134 643.3999 Q1053.147 643.4194 1049.0664 648.1271 Q1044.9081 652.9355 1045.0071 656.2358 Q1045.1061 659.536 1049.551 664.6044 Q1053.7689 669.4139 1056.5054 669.6075 Q1056.6246 669.616 1056.7456 669.616 Q1059.4026 669.616 1062.9327 665.5498 L1063.8448 664.5045 L1060.3813 660.5552 Q1060.0216 660.9033 1059.8698 661.0856 Q1057.7927 663.194 1056.7043 663.194 Q1056.675 663.194 1056.6465 663.1924 Q1055.5563 663.1341 1053.4149 660.6924 Q1050.9004 657.8252 1050.7201 656.257 Q1050.5398 654.6888 1052.4418 652.4973 Q1054.5306 650.0889 1055.6135 650.0889 Q1055.6985 650.0889 1055.7773 650.1038 Q1056.8602 650.3077 1060.63 654.0375 Q1065.0986 658.447 1067.5425 658.447 Q1067.5474 658.447 1067.5521 658.447 Q1069.9968 658.4384 1073.8514 653.9944 Q1078.5865 648.5165 1078.5343 645.2815 Q1078.4822 642.0466 1073.583 636.4602 Q1069.1786 631.438 1066.3766 631.3591 Q1066.3312 631.3578 1066.2854 631.3578 ZM1087.5093 652.8138 L1067.7655 675.6104 L1062.3796 669.469 L1058.3379 674.1262 L1072.8571 690.6819 L1076.8987 686.0247 L1071.3182 679.6614 L1091.062 656.8649 L1087.5093 652.8138 Z" style="fill:white; stroke:none;" />
    </g>
    <g style="text-rendering:optimizeLegibility; stroke-width:3;" transform="matrix(0.3267,0,0,-0.3267,30,533)">
      <path d="M708.9867 390.3799 L707.2157 396.556 L686.1544 393.762 L685.0273 397.6923 L706.0887 400.4862 L704.3763 406.4582 L708.701 407.0216 L713.3114 390.9433 L708.9867 390.3799 ZM687.8409 405.5486 Q685.1183 405.5486 683.8128 406.4912 Q681.8757 407.8899 680.3206 413.3131 Q678.9229 418.1877 679.9115 419.9833 Q680.9001 421.779 685.33 422.3725 L686.2528 422.499 L687.3468 418.6836 L686.8179 418.601 Q684.1547 418.2516 683.7779 417.4117 Q683.4011 416.5717 684.3707 413.1902 Q685.1282 410.5487 686.025 409.9152 Q686.6163 409.4975 687.9002 409.4975 Q688.5638 409.4975 689.4125 409.6091 Q691.243 409.8578 691.6952 410.4915 Q692.1474 411.1252 691.748 412.9717 L691.2949 415.1756 Q690.2349 420.1194 691.1674 421.6573 Q692.0999 423.1952 696.4547 423.7672 Q697.7415 423.9396 698.8193 423.9396 Q701.4515 423.9396 702.8363 422.9111 Q704.788 421.4615 706.2004 416.5359 Q707.536 411.8783 706.6466 410.0765 Q705.7572 408.2748 701.8112 407.751 L700.8398 407.6243 L699.7421 411.4525 Q700.0948 411.526 700.2673 411.5479 Q702.3576 411.9677 702.7223 412.6799 Q703.087 413.3921 702.4101 415.7528 Q701.6088 418.5474 700.7297 419.3172 Q700.0739 419.8916 698.7821 419.8916 Q698.3423 419.8916 697.8289 419.825 Q695.4321 419.5106 695.1494 418.739 Q694.8668 417.9675 695.7202 414.0278 Q696.7297 409.3734 695.8196 407.842 Q694.9097 406.3105 690.8062 405.7691 Q689.1578 405.5486 687.8409 405.5486 ZM677.6242 423.5101 L673.5371 437.7636 L698.9232 441.121 L702.9847 426.9568 L698.9263 426.4283 L695.9918 436.6623 L689.4464 435.7935 L692.2273 426.0955 L688.6714 425.6283 L685.8906 435.3263 L678.7188 434.3746 L681.679 424.0513 L677.6242 423.5101 ZM686.7776 446.5727 Q687.5887 446.5727 688.6546 446.7179 Q691.3665 447.0674 691.9932 447.7442 Q692.62 448.4211 692.0674 450.348 L690.3733 456.2561 L681.6524 455.095 L683.2697 449.4548 Q683.8478 447.4386 684.9214 446.8972 Q685.5648 446.5727 686.7776 446.5727 ZM672.6973 440.6922 L671.5704 444.6224 L676.2065 445.2337 Q680.1224 445.7489 679.2186 448.9008 L677.5977 454.5537 L669.0456 453.4272 L667.9223 457.3447 L693.3084 460.7021 L696.232 450.5064 Q697.3224 446.7037 696.1118 445.0585 Q694.9012 443.4132 690.6739 442.8502 Q688.7815 442.5992 687.4271 442.5992 Q686.0245 442.5992 685.199 442.8683 Q683.5762 443.3973 682.4069 445.5478 L682.2344 445.526 Q682.9711 442.05 678.2863 441.4386 L672.6973 440.6922 ZM672.9189 465.1761 Q674.9741 465.1761 678.7953 465.6826 Q685.1681 466.5294 686.137 467.3735 Q687.106 468.2175 686.0119 472.0329 Q684.8776 475.9887 683.4346 476.4864 Q682.9493 476.6537 681.7932 476.6537 Q679.5115 476.6537 674.6172 476.0019 Q669.1521 475.2772 668.2556 474.3503 Q667.3592 473.4235 668.4532 469.6081 Q669.4997 465.9586 670.9686 465.3993 Q671.5546 465.1761 672.9189 465.1761 ZM673.4091 461.1896 Q670.2153 461.1896 668.7446 461.903 Q666.0069 463.2308 664.214 469.4835 Q662.5967 475.1237 664.3621 477.073 Q666.1276 479.0224 673.7532 480.0352 Q678.0918 480.6117 680.9932 480.6117 Q684.1545 480.6117 685.6094 479.9272 Q688.3997 478.6144 690.2183 472.2724 Q691.8355 466.6322 690.0065 464.7061 Q688.1776 462.7799 680.1918 461.7191 Q676.1609 461.1896 673.4091 461.1896 ZM671.7522 481.7417 L669.092 491.0186 L658.6608 489.6433 L657.5375 493.5608 L682.9236 496.9182 L686.8498 483.2261 L682.7913 482.6976 L679.9885 492.4722 L673.1469 491.5599 L675.8069 482.283 L671.7522 481.7417 ZM654.4735 504.2461 L650.3864 518.4997 L675.7725 521.8571 L679.834 507.6928 L675.7756 507.1643 L672.8411 517.3983 L666.2957 516.5296 L669.0766 506.8316 L665.5208 506.3643 L662.7399 516.0624 L655.5681 515.1107 L658.5283 504.7874 L654.4735 504.2461 ZM649.9359 520.0708 L646.0317 533.6863 L671.4178 537.0437 L672.5411 533.1262 L651.4761 530.345 L654.257 520.647 L649.9359 520.0708 ZM650.3091 537.0112 Q647.527 537.0112 646.2001 537.9173 Q644.1991 539.2838 642.655 544.6687 Q640.8986 550.7938 642.9437 552.5333 Q644.9888 554.2728 655.6713 555.6788 Q657.7845 555.9595 659.4729 555.9595 Q662.801 555.9595 664.4778 554.869 Q667.0054 553.2254 668.7471 547.1514 Q670.0167 542.7234 668.8151 541.0186 Q667.6135 539.3138 662.7898 538.6763 L662.2121 538.5936 L661.0815 542.5366 L661.7266 542.6111 Q664.2322 542.9429 664.7084 543.8044 Q665.1848 544.666 664.4053 547.384 Q663.3552 551.0463 662.0402 551.6359 Q661.4482 551.9013 660.0283 551.9013 Q658.2938 551.9013 655.3239 551.5053 Q648.0246 550.5447 646.8776 549.6979 Q645.7307 548.8512 646.7625 545.2527 Q647.6004 542.3306 648.5938 541.5589 Q649.291 541.0173 650.7499 541.0173 Q651.3694 541.0173 652.1264 541.115 L653.2444 541.2975 L654.3714 537.3672 L653.5124 537.2452 Q651.7228 537.0112 650.3091 537.0112 ZM665.4213 557.9559 L647.5285 563.5554 L637.8361 562.2676 L636.7092 566.1979 L646.4016 567.4857 L659.9584 577.0074 L661.261 572.4647 L655.4546 568.452 Q654.9802 568.1226 653.6553 567.3008 L652.7446 566.7358 L651.8488 566.1752 L651.8817 566.0603 L653.0226 565.7661 L654.1859 565.4506 Q655.7198 565.0894 656.4938 564.828 L664.1004 562.5624 L665.4213 557.9559 ZM639.3987 575.0608 Q636.6165 575.0608 635.2896 575.9669 Q633.2885 577.3334 631.7444 582.7183 Q629.9881 588.8434 632.0331 590.5829 Q634.0782 592.3224 644.7607 593.7284 Q646.874 594.009 648.5624 594.009 Q651.8904 594.009 653.5673 592.9186 Q656.0948 591.275 657.8365 585.2009 Q659.1062 580.773 657.9045 579.0682 Q656.7029 577.3634 651.8793 576.726 L651.3016 576.6432 L650.171 580.5862 L650.816 580.6606 Q653.3216 580.9925 653.7979 581.8541 Q654.2742 582.7156 653.4948 585.4337 Q652.4446 589.0959 651.1296 589.6855 Q650.5377 589.9509 649.1177 589.9509 Q647.3832 589.9509 644.4133 589.5549 Q637.1141 588.5943 635.9671 587.7476 Q634.8201 586.9008 635.8519 583.3023 Q636.6899 580.3801 637.6832 579.6085 Q638.3805 579.0669 639.8395 579.0669 Q640.459 579.0669 641.2159 579.1646 L642.3339 579.347 L643.4609 575.4168 L642.6019 575.2947 Q640.8124 575.0608 639.3987 575.0608 ZM628.5667 594.5941 L627.4434 598.5116 L652.8295 601.869 L653.9528 597.9515 L628.5667 594.5941 ZM631.7794 606.258 Q632.3871 606.258 633.158 606.3586 Q635.4761 606.6642 635.8804 607.4085 Q636.2846 608.1528 635.5419 610.7432 L634.1038 615.7581 L626.9772 614.8193 L628.2103 610.519 L628.6391 609.1367 Q629.2099 607.1461 630.0793 606.6082 Q630.6454 606.258 631.7794 606.258 ZM642.1736 608.1689 Q642.7996 608.1689 643.6118 608.279 Q646.665 608.6849 645.8564 611.5051 L644.2501 617.1069 L637.6597 616.2253 L639.0391 611.4146 Q639.7051 609.0921 640.5162 608.5306 Q641.039 608.1689 642.1736 608.1689 ZM631.4199 602.1377 Q629.1512 602.1377 627.7998 602.9371 Q625.8423 604.0951 624.869 607.4894 L621.7991 618.1956 L647.1852 621.5529 L650.0978 611.3955 Q651.126 607.8098 650.0945 606.3333 Q649.0631 604.8568 645.1659 604.3331 Q644.3511 604.2264 643.6265 604.2264 Q640.1708 604.2264 638.7626 606.6537 L638.6688 606.6406 Q639.0109 603.0101 633.6396 602.2985 Q632.4374 602.1377 631.4199 602.1377 Z" style="fill:none;" />
      <path d="M708.9867 390.3799 L707.2157 396.556 L686.1544 393.762 L685.0273 397.6923 L706.0887 400.4862 L704.3763 406.4582 L708.701 407.0216 L713.3114 390.9433 L708.9867 390.3799 ZM687.8409 405.5486 Q685.1183 405.5486 683.8128 406.4912 Q681.8757 407.8899 680.3206 413.3131 Q678.9229 418.1877 679.9115 419.9833 Q680.9001 421.779 685.33 422.3725 L686.2528 422.499 L687.3468 418.6836 L686.8179 418.601 Q684.1547 418.2516 683.7779 417.4117 Q683.4011 416.5717 684.3707 413.1902 Q685.1282 410.5487 686.025 409.9152 Q686.6163 409.4975 687.9002 409.4975 Q688.5638 409.4975 689.4125 409.6091 Q691.243 409.8578 691.6952 410.4915 Q692.1474 411.1252 691.748 412.9717 L691.2949 415.1756 Q690.2349 420.1194 691.1674 421.6573 Q692.0999 423.1952 696.4547 423.7672 Q697.7415 423.9396 698.8193 423.9396 Q701.4515 423.9396 702.8363 422.9111 Q704.788 421.4615 706.2004 416.5359 Q707.536 411.8783 706.6466 410.0765 Q705.7572 408.2748 701.8112 407.751 L700.8398 407.6243 L699.7421 411.4525 Q700.0948 411.526 700.2673 411.5479 Q702.3576 411.9677 702.7223 412.6799 Q703.087 413.3921 702.4101 415.7528 Q701.6088 418.5474 700.7297 419.3172 Q700.0739 419.8916 698.7821 419.8916 Q698.3423 419.8916 697.8289 419.825 Q695.4321 419.5106 695.1494 418.739 Q694.8668 417.9675 695.7202 414.0278 Q696.7297 409.3734 695.8196 407.842 Q694.9097 406.3105 690.8062 405.7691 Q689.1578 405.5486 687.8409 405.5486 ZM677.6242 423.5101 L673.5371 437.7636 L698.9232 441.121 L702.9847 426.9568 L698.9263 426.4283 L695.9918 436.6623 L689.4464 435.7935 L692.2273 426.0955 L688.6714 425.6283 L685.8906 435.3263 L678.7188 434.3746 L681.679 424.0513 L677.6242 423.5101 ZM686.7776 446.5727 Q687.5887 446.5727 688.6546 446.7179 Q691.3665 447.0674 691.9932 447.7442 Q692.62 448.4211 692.0674 450.348 L690.3733 456.2561 L681.6524 455.095 L683.2697 449.4548 Q683.8478 447.4386 684.9214 446.8972 Q685.5648 446.5727 686.7776 446.5727 ZM672.6973 440.6922 L671.5704 444.6224 L676.2065 445.2337 Q680.1224 445.7489 679.2186 448.9008 L677.5977 454.5537 L669.0456 453.4272 L667.9223 457.3447 L693.3084 460.7021 L696.232 450.5064 Q697.3224 446.7037 696.1118 445.0585 Q694.9012 443.4132 690.6739 442.8502 Q688.7815 442.5992 687.4271 442.5992 Q686.0245 442.5992 685.199 442.8683 Q683.5762 443.3973 682.4069 445.5478 L682.2344 445.526 Q682.9711 442.05 678.2863 441.4386 L672.6973 440.6922 ZM672.9189 465.1761 Q674.9741 465.1761 678.7953 465.6826 Q685.1681 466.5294 686.137 467.3735 Q687.106 468.2175 686.0119 472.0329 Q684.8776 475.9887 683.4346 476.4864 Q682.9493 476.6537 681.7932 476.6537 Q679.5115 476.6537 674.6172 476.0019 Q669.1521 475.2772 668.2556 474.3503 Q667.3592 473.4235 668.4532 469.6081 Q669.4997 465.9586 670.9686 465.3993 Q671.5546 465.1761 672.9189 465.1761 ZM673.4091 461.1896 Q670.2153 461.1896 668.7446 461.903 Q666.0069 463.2308 664.214 469.4835 Q662.5967 475.1237 664.3621 477.073 Q666.1276 479.0224 673.7532 480.0352 Q678.0918 480.6117 680.9932 480.6117 Q684.1545 480.6117 685.6094 479.9272 Q688.3997 478.6144 690.2183 472.2724 Q691.8355 466.6322 690.0065 464.7061 Q688.1776 462.7799 680.1918 461.7191 Q676.1609 461.1896 673.4091 461.1896 ZM671.7522 481.7417 L669.092 491.0186 L658.6608 489.6433 L657.5375 493.5608 L682.9236 496.9182 L686.8498 483.2261 L682.7913 482.6976 L679.9885 492.4722 L673.1469 491.5599 L675.8069 482.283 L671.7522 481.7417 ZM654.4735 504.2461 L650.3864 518.4997 L675.7725 521.8571 L679.834 507.6928 L675.7756 507.1643 L672.8411 517.3983 L666.2957 516.5296 L669.0766 506.8316 L665.5208 506.3643 L662.7399 516.0624 L655.5681 515.1107 L658.5283 504.7874 L654.4735 504.2461 ZM649.9359 520.0708 L646.0317 533.6863 L671.4178 537.0437 L672.5411 533.1262 L651.4761 530.345 L654.257 520.647 L649.9359 520.0708 ZM650.3091 537.0112 Q647.527 537.0112 646.2001 537.9173 Q644.1991 539.2838 642.655 544.6687 Q640.8986 550.7938 642.9437 552.5333 Q644.9888 554.2728 655.6713 555.6788 Q657.7845 555.9595 659.4729 555.9595 Q662.801 555.9595 664.4778 554.869 Q667.0054 553.2254 668.7471 547.1514 Q670.0167 542.7234 668.8151 541.0186 Q667.6135 539.3138 662.7898 538.6763 L662.2121 538.5936 L661.0815 542.5366 L661.7266 542.6111 Q664.2322 542.9429 664.7084 543.8044 Q665.1848 544.666 664.4053 547.384 Q663.3552 551.0463 662.0402 551.6359 Q661.4482 551.9013 660.0283 551.9013 Q658.2938 551.9013 655.3239 551.5053 Q648.0246 550.5447 646.8776 549.6979 Q645.7307 548.8512 646.7625 545.2527 Q647.6004 542.3306 648.5938 541.5589 Q649.291 541.0173 650.7499 541.0173 Q651.3694 541.0173 652.1264 541.115 L653.2444 541.2975 L654.3714 537.3672 L653.5124 537.2452 Q651.7228 537.0112 650.3091 537.0112 ZM665.4213 557.9559 L647.5285 563.5554 L637.8361 562.2676 L636.7092 566.1979 L646.4016 567.4857 L659.9584 577.0074 L661.261 572.4647 L655.4546 568.452 Q654.9802 568.1226 653.6553 567.3008 L652.7446 566.7358 L651.8488 566.1752 L651.8817 566.0603 L653.0226 565.7661 L654.1859 565.4506 Q655.7198 565.0894 656.4938 564.828 L664.1004 562.5624 L665.4213 557.9559 ZM639.3987 575.0608 Q636.6165 575.0608 635.2896 575.9669 Q633.2885 577.3334 631.7444 582.7183 Q629.9881 588.8434 632.0331 590.5829 Q634.0782 592.3224 644.7607 593.7284 Q646.874 594.009 648.5624 594.009 Q651.8904 594.009 653.5673 592.9186 Q656.0948 591.275 657.8365 585.2009 Q659.1062 580.773 657.9045 579.0682 Q656.7029 577.3634 651.8793 576.726 L651.3016 576.6432 L650.171 580.5862 L650.816 580.6606 Q653.3216 580.9925 653.7979 581.8541 Q654.2742 582.7156 653.4948 585.4337 Q652.4446 589.0959 651.1296 589.6855 Q650.5377 589.9509 649.1177 589.9509 Q647.3832 589.9509 644.4133 589.5549 Q637.1141 588.5943 635.9671 587.7476 Q634.8201 586.9008 635.8519 583.3023 Q636.6899 580.3801 637.6832 579.6085 Q638.3805 579.0669 639.8395 579.0669 Q640.459 579.0669 641.2159 579.1646 L642.3339 579.347 L643.4609 575.4168 L642.6019 575.2947 Q640.8124 575.0608 639.3987 575.0608 ZM628.5667 594.5941 L627.4434 598.5116 L652.8295 601.869 L653.9528 597.9515 L628.5667 594.5941 ZM631.7794 606.258 Q632.3871 606.258 633.158 606.3586 Q635.4761 606.6642 635.8804 607.4085 Q636.2846 608.1528 635.5419 610.7432 L634.1038 615.7581 L626.9772 614.8193 L628.2103 610.519 L628.6391 609.1367 Q629.2099 607.1461 630.0793 606.6082 Q630.6454 606.258 631.7794 606.258 ZM642.1736 608.1689 Q642.7996 608.1689 643.6118 608.279 Q646.665 608.6849 645.8564 611.5051 L644.2501 617.1069 L637.6597 616.2253 L639.0391 611.4146 Q639.7051 609.0921 640.5162 608.5306 Q641.039 608.1689 642.1736 608.1689 ZM631.4199 602.1377 Q629.1512 602.1377 627.7998 602.9371 Q625.8423 604.0951 624.869 607.4894 L621.7991 618.1956 L647.1852 621.5529 L650.0978 611.3955 Q651.126 607.8098 650.0945 606.3333 Q649.0631 604.8568 645.1659 604.3331 Q644.3511 604.2264 643.6265 604.2264 Q640.1708 604.2264 638.7626 606.6537 L638.6688 606.6406 Q639.0109 603.0101 633.6396 602.2985 Q632.4374 602.1377 631.4199 602.1377 Z" style="fill:white; stroke:none;" />
    </g>
    <g style="fill:gray; text-rendering:optimizeLegibility; stroke:gray;" transform="matrix(0.3267,0,0,-0.3267,30,533) translate(735.9048,267)">
      <path d="M0 14.3 L0 14.3 C-7.8977 14.3 -14.3 7.8977 -14.3 0 C-14.3 -7.8977 -7.8977 -14.3 -0 -14.3 L172.5 -14.3 C180.3977 -14.3 186.8 -7.8977 186.8 0 C186.8 7.8977 180.3977 14.3 172.5 14.3 Z" style="stroke:none;" />
      <path d="M0 14.3 L0 14.3 C-7.8977 14.3 -14.3 7.8977 -14.3 0 C-14.3 -7.8977 -7.8977 -14.3 -0 -14.3 L172.5 -14.3 C180.3977 -14.3 186.8 -7.8977 186.8 0 C186.8 7.8977 180.3977 14.3 172.5 14.3 Z" style="fill:none; stroke:black;" />
    </g>
    <g style="fill:rgb(64,64,64); text-rendering:optimizeLegibility; stroke:rgb(64,64,64);" transform="matrix(0.3267,0,0,-0.3267,30,533) translate(908.4048,267) rotate(8.6328)">
      <path d="M0 8.5 L13 8.5 C17.6944 8.5 21.5 4.6944 21.5 0 C21.5 -4.6944 17.6944 -8.5 13 -8.5 L-13 -8.5 C-17.6944 -8.5 -21.5 -4.6944 -21.5 -0 C-21.5 4.6944 -17.6944 8.5 -13 8.5 Z" style="stroke:none;" />
      <path d="M0 8.5 L13 8.5 C17.6944 8.5 21.5 4.6944 21.5 0 C21.5 -4.6944 17.6944 -8.5 13 -8.5 L-13 -8.5 C-17.6944 -8.5 -21.5 -4.6944 -21.5 -0 C-21.5 4.6944 -17.6944 8.5 -13 8.5 Z" style="fill:none; stroke:black;" />
    </g>
    <g transform="matrix(0.3267,0,0,-0.3267,30,533)" style="fill-opacity:0.4941; fill:rgb(193,204,232); text-rendering:optimizeLegibility; stroke:rgb(193,204,232); stroke-opacity:0.4941;">
      <path d="M1313.1167 710.3569 Q1302.829 710.3569 1279.2676 721.8918 L1279.2676 721.8918 C1277.8932 721.699 1276.506 721.6021 1275.1171 721.6021 C1268.4708 721.6021 1261.7844 723.8217 1256.2534 728.3766 Q1076.7024 856.4215 991.79 926.3493 C981.5771 934.7599 976.0232 946.7302 975.4457 958.981 L975.4457 958.981 Q966.5917 1062.4974 958.311 1096.7236 Q933.8948 1172.0776 925.3647 1271.7837 C921.5586 1302.6157 943.4673 1330.6954 974.2993 1334.5016 C976.639 1334.7904 978.963 1334.9312 981.2616 1334.9312 C1009.2533 1334.9312 1033.4999 1314.0592 1037.0172 1285.567 C1037.6765 1280.2262 1037.5642 1274.968 1036.7676 1269.9043 L1036.7676 1269.9043 Q1035.6455 1173.9396 1045.4548 1125.394 Q1058.9889 1051.3546 1063.8264 985.6746 L1063.8264 985.6746 Q1123.8087 942.8073 1168.1987 881.0066 Q1167.5829 880.2588 1264.1569 799.2487 L1264.1569 799.2487 Q1266.0626 800.076 1268.1752 800.8163 Q1294.6782 807.7741 1313.1021 807.7741 Q1340.7152 807.7741 1350.1802 792.1448 L1358.6108 768.084 Q1360.0026 758.1813 1319.0269 712.0294 Q1317.0341 710.3569 1313.1167 710.3569 Z" style="stroke:none;" />
      <path d="M759.7571 303.5413 C756.4114 303.5413 753.011 303.9642 749.6226 304.8491 C728.2481 310.4313 715.4459 332.2839 721.028 353.6584 Q721.028 353.6584 721.028 353.6584 L721.028 353.6584 C721.2105 354.3573 721.4105 355.047 721.6271 355.7272 L721.6271 355.7272 Q758.48 483.2663 755.9031 546.5605 Q735.6466 609.2962 815.3472 723.8792 L815.3472 723.8792 Q628.6677 802.3081 471.5717 920.1168 L471.5717 920.1168 C467.0008 923.4709 462.6986 927.1697 458.7034 931.1747 L458.7034 931.1747 C399.2898 990.6925 399.3057 1087.0951 458.7512 1146.593 L458.7512 1146.593 C465.5828 1153.4332 473.3105 1159.3783 481.7431 1164.2372 L481.7431 1164.2372 Q657.834 1349.3533 917.3266 1389.6049 Q921.1417 1389.7124 925.0187 1389.7124 Q949.4119 1389.7124 976.2568 1385.4539 Q999.3738 1380.5433 1019.6636 1380.5433 Q1027.644 1380.5433 1035.187 1381.303 Q1035.5194 1381.3066 1035.8474 1381.3066 Q1079.8738 1381.3066 1044.6891 1315.6941 Q1039.2703 1292.0957 1050.9283 1292.0957 Q1056.6119 1292.0957 1066.3542 1297.7046 Q1068.5991 1297.9307 1070.5466 1297.9307 Q1101.0522 1297.9307 1058.5819 1242.4589 Q1048.1857 1228.0923 1037.1248 1214.8802 L1037.1248 1214.8802 Q1036.4192 1240.1063 1036.7676 1269.9043 L1036.7676 1269.9043 C1037.5642 1274.968 1037.6765 1280.2262 1037.0172 1285.567 C1033.4999 1314.0592 1009.2533 1334.9312 981.2616 1334.9312 C978.963 1334.9312 976.639 1334.7904 974.2993 1334.5016 C943.4673 1330.6954 921.5586 1302.6157 925.3647 1271.7837 Q931.8697 1195.7483 947.6133 1133.8748 L947.6133 1133.8748 Q887.7421 1093.9098 814.7676 1076.7045 Q757.9482 1059.0317 690.0767 1026.0862 L690.0767 1026.0862 Q804.531 926.5201 901.419 803.5709 C925.7051 785.3262 930.6027 750.8483 912.358 726.5622 C910.8502 724.555 909.2314 722.6802 907.5166 720.94 L907.5166 720.94 Q867.2697 537.6686 798.4319 333.4437 C793.7347 315.4576 777.5166 303.5413 759.7571 303.5413 ZM1158.1624 1251.7324 Q1155.2224 1251.7324 1151.8624 1252.9924 Q1118.2625 1259.2925 1082.5624 1360.0925 Q1061.5624 1410.4924 1030.0624 1420.9924 L1040.5624 1473.4924 L1025.8624 1509.1925 Q1053.1625 1519.6925 1040.5624 1549.0924 Q1048.5806 1545.9742 1053.764 1545.9742 Q1073.017 1545.9742 1053.1625 1588.9924 Q1246.3624 1578.4924 1269.4624 1483.9924 Q1282.0624 1437.7925 1273.6625 1404.1925 Q1271.7958 1400.4591 1266.1958 1400.4591 Q1259.1957 1400.4591 1246.3624 1406.2925 L1240.0624 1387.3925 Q1250.5624 1376.8925 1244.2625 1376.8925 L1231.6625 1357.9924 L1233.7625 1326.4924 Q1233.7625 1318.9924 1220.9054 1318.9924 Q1215.7625 1318.9924 1208.5624 1320.1925 Q1202.2625 1313.8925 1204.3624 1307.5925 Q1202.2625 1299.1925 1185.4624 1299.1925 Q1198.0624 1286.5925 1189.6625 1280.2925 Q1181.2625 1280.2925 1174.9624 1271.8925 Q1169.9225 1251.7324 1158.1624 1251.7324 Z" style="stroke:none;" />
    </g>
    <g style="text-rendering:optimizeLegibility;" transform="matrix(0.3267,0,0,-0.3267,30,533)">
      <path d="M1313.1167 710.3569 Q1302.829 710.3569 1279.2676 721.8918 L1279.2676 721.8918 C1277.8932 721.699 1276.506 721.6021 1275.1171 721.6021 C1268.4708 721.6021 1261.7844 723.8217 1256.2534 728.3766 Q1076.7024 856.4215 991.79 926.3493 C981.5771 934.7599 976.0232 946.7302 975.4457 958.981 L975.4457 958.981 Q966.5917 1062.4974 958.311 1096.7236 Q933.8948 1172.0776 925.3647 1271.7837 C921.5586 1302.6157 943.4673 1330.6954 974.2993 1334.5016 C976.639 1334.7904 978.963 1334.9312 981.2616 1334.9312 C1009.2533 1334.9312 1033.4999 1314.0592 1037.0172 1285.567 C1037.6765 1280.2262 1037.5642 1274.968 1036.7676 1269.9043 L1036.7676 1269.9043 Q1035.6455 1173.9396 1045.4548 1125.394 Q1058.9889 1051.3546 1063.8264 985.6746 L1063.8264 985.6746 Q1123.8087 942.8073 1168.1987 881.0066 Q1167.5829 880.2588 1264.1569 799.2487 L1264.1569 799.2487 Q1266.0626 800.076 1268.1752 800.8163 Q1294.6782 807.7741 1313.1021 807.7741 Q1340.7152 807.7741 1350.1802 792.1448 L1358.6108 768.084 Q1360.0026 758.1813 1319.0269 712.0294 Q1317.0341 710.3569 1313.1167 710.3569 Z" style="fill:none;" />
      <path d="M759.7571 303.5413 C756.4114 303.5413 753.011 303.9642 749.6226 304.8491 C728.2481 310.4313 715.4459 332.2839 721.028 353.6584 Q721.028 353.6584 721.028 353.6584 L721.028 353.6584 C721.2105 354.3573 721.4105 355.047 721.6271 355.7272 L721.6271 355.7272 Q758.48 483.2663 755.9031 546.5605 Q735.6466 609.2962 815.3472 723.8792 L815.3472 723.8792 Q628.6677 802.3081 471.5717 920.1168 L471.5717 920.1168 C467.0008 923.4709 462.6986 927.1697 458.7034 931.1747 L458.7034 931.1747 C399.2898 990.6925 399.3057 1087.0951 458.7512 1146.593 L458.7512 1146.593 C465.5828 1153.4332 473.3105 1159.3783 481.7431 1164.2372 L481.7431 1164.2372 Q657.834 1349.3533 917.3266 1389.6049 Q921.1417 1389.7124 925.0187 1389.7124 Q949.4119 1389.7124 976.2568 1385.4539 Q999.3738 1380.5433 1019.6636 1380.5433 Q1027.644 1380.5433 1035.187 1381.303 Q1035.5194 1381.3066 1035.8474 1381.3066 Q1079.8738 1381.3066 1044.6891 1315.6941 Q1039.2703 1292.0957 1050.9283 1292.0957 Q1056.6119 1292.0957 1066.3542 1297.7046 Q1068.5991 1297.9307 1070.5466 1297.9307 Q1101.0522 1297.9307 1058.5819 1242.4589 Q1048.1857 1228.0923 1037.1248 1214.8802 L1037.1248 1214.8802 Q1036.4192 1240.1063 1036.7676 1269.9043 L1036.7676 1269.9043 C1037.5642 1274.968 1037.6765 1280.2262 1037.0172 1285.567 C1033.4999 1314.0592 1009.2533 1334.9312 981.2616 1334.9312 C978.963 1334.9312 976.639 1334.7904 974.2993 1334.5016 C943.4673 1330.6954 921.5586 1302.6157 925.3647 1271.7837 Q931.8697 1195.7483 947.6133 1133.8748 L947.6133 1133.8748 Q887.7421 1093.9098 814.7676 1076.7045 Q757.9482 1059.0317 690.0767 1026.0862 L690.0767 1026.0862 Q804.531 926.5201 901.419 803.5709 C925.7051 785.3262 930.6027 750.8483 912.358 726.5622 C910.8502 724.555 909.2314 722.6802 907.5166 720.94 L907.5166 720.94 Q867.2697 537.6686 798.4319 333.4437 C793.7347 315.4576 777.5166 303.5413 759.7571 303.5413 ZM1158.1624 1251.7324 Q1155.2224 1251.7324 1151.8624 1252.9924 Q1118.2625 1259.2925 1082.5624 1360.0925 Q1061.5624 1410.4924 1030.0624 1420.9924 L1040.5624 1473.4924 L1025.8624 1509.1925 Q1053.1625 1519.6925 1040.5624 1549.0924 Q1048.5806 1545.9742 1053.764 1545.9742 Q1073.017 1545.9742 1053.1625 1588.9924 Q1246.3624 1578.4924 1269.4624 1483.9924 Q1282.0624 1437.7925 1273.6625 1404.1925 Q1271.7958 1400.4591 1266.1958 1400.4591 Q1259.1957 1400.4591 1246.3624 1406.2925 L1240.0624 1387.3925 Q1250.5624 1376.8925 1244.2625 1376.8925 L1231.6625 1357.9924 L1233.7625 1326.4924 Q1233.7625 1318.9924 1220.9054 1318.9924 Q1215.7625 1318.9924 1208.5624 1320.1925 Q1202.2625 1313.8925 1204.3624 1307.5925 Q1202.2625 1299.1925 1185.4624 1299.1925 Q1198.0624 1286.5925 1189.6625 1280.2925 Q1181.2625 1280.2925 1174.9624 1271.8925 Q1169.9225 1251.7324 1158.1624 1251.7324 Z" style="fill:none;" />
    </g>
    <g style="text-rendering:optimizeLegibility;" transform="matrix(0.3267,0,0,-0.3267,30,533)">
      <line x1="868.3842" x2="536.5815" y1="759.597" style="fill:none;" y2="1008.86" />
      <line x1="868.3842" x2="759.73" y1="759.597" style="fill:none;" y2="343.5511" />
      <line x1="536.5815" x2="961.2333" y1="1068.86" style="fill:none;" y2="1313.3408" />
      <line x1="981.191" x2="1020.3968" y1="1278.6754" style="fill:none;" y2="961.0862" />
      <line x1="1275.1339" x2="1020.3968" y1="751.3029" style="fill:none;" y2="961.0862" />
      <path d="M-19.8604 -1.0999 Q-39.4388 -1.0999 -60.823 2.3447 Q-87.7096 7.8345 -125.7596 7.8345 Q-144.8382 7.8345 -166.7234 6.4543 Q-167.7789 6.4076 -168.7887 6.4076 Q-183.7579 6.4076 -188.6626 16.6742 Q-205.4253 42.2903 -193.733 72.7177 Q-188.9934 81.896 -189.1302 95.4886 Q-187.6204 96.5898 -186.188 96.5898 Q-184.0717 96.5898 -182.1242 94.1861 Q-154.4385 68.6249 -106.1852 67.712 L-94.7854 86.2066 L-103.294 93.3186 Q-108.6948 98.0411 -91.066 115.8306 Q-88.1282 118.372 -85.6814 118.372 Q-82.0763 118.372 -79.5369 112.855 L-76.2201 113.4392 L-50.738 95.3662 Q-49.9626 89.3506 -46.6181 89.3506 Q-44.6285 89.3506 -41.7298 91.4794 L-15.2998 75.2421 L-16.375 67.7104 Q2.7885 51.2802 34.2131 49.5203 Q41.5385 50.7312 47.4527 50.7312 Q71.4178 50.7312 72.2101 30.848 Q71.6213 22.4675 52.9704 13.4422 Q20.3668 -1.0999 -19.8604 -1.0999 Z" style="fill:rgb(64,64,64); stroke:none;" transform="translate(908.4048,267) rotate(8.6328) translate(0,10)" />
      <path d="M-19.8604 -1.0999 Q-39.4388 -1.0999 -60.823 2.3447 Q-87.7096 7.8345 -125.7596 7.8345 Q-144.8382 7.8345 -166.7234 6.4543 Q-167.7789 6.4076 -168.7887 6.4076 Q-183.7579 6.4076 -188.6626 16.6742 Q-205.4253 42.2903 -193.733 72.7177 Q-188.9934 81.896 -189.1302 95.4886 Q-187.6204 96.5898 -186.188 96.5898 Q-184.0717 96.5898 -182.1242 94.1861 Q-154.4385 68.6249 -106.1852 67.712 L-94.7854 86.2066 L-103.294 93.3186 Q-108.6948 98.0411 -91.066 115.8306 Q-88.1282 118.372 -85.6814 118.372 Q-82.0763 118.372 -79.5369 112.855 L-76.2201 113.4392 L-50.738 95.3662 Q-49.9626 89.3506 -46.6181 89.3506 Q-44.6285 89.3506 -41.7298 91.4794 L-15.2998 75.2421 L-16.375 67.7104 Q2.7885 51.2802 34.2131 49.5203 Q41.5385 50.7312 47.4527 50.7312 Q71.4178 50.7312 72.2101 30.848 Q71.6213 22.4675 52.9704 13.4422 Q20.3668 -1.0999 -19.8604 -1.0999 Z" style="fill:none;" transform="translate(908.4048,267) rotate(8.6328) translate(0,10)" />
    </g>
    <g style="text-rendering:optimizeLegibility;" transform="matrix(0.3267,0,0,-0.3267,30,533) translate(1788.5016,134.8)">
      <path d="M-34 -20 L-34 20 L34 20 L34 -20 ZM37.6 -20 L37.6 20 L56 86.25 L56 186.8 L70 186.8 L70 69 L61 -20 Z" style="fill:none;" />
      <path d="M122 -26.414 Q81.35 -26.414 81.35 152.446 Q81.35 244.586 122 244.586 Q159.94 244.586 173.49 160.576 Q162.65 -26.414 122 -26.414 Z" style="fill:none;" />
      <path d="M117.6682 272.5824 L-177.7939 878.3696 L-157.1216 888.4521 L138.3405 282.6649 L117.6682 272.5824 Z" style="fill:none;" />
      <path d="M-65.9583 549.0677 L-72.9723 563.4485 L-33.5698 582.6663 L-33.5698 582.6663 L-26.5559 568.2856 L-26.5559 568.2856 L-65.9583 549.0677 ZM-5.8836 578.3682 L-12.8975 592.7489 L-12.8975 592.7489 L26.5049 611.9667 L33.5189 597.586 L-5.8836 578.3682 Z" style="fill:none;" />
    </g>
    <g transform="matrix(0.3267,0,0,-0.3267,30,533) translate(1788.5016,134.8)" style="fill-opacity:0.2745; fill:rgb(0,0,0); text-rendering:optimizeLegibility; stroke:rgb(0,0,0); stroke-opacity:0.2745;">
      <path d="M126.9901 277.4022 C111.4246 277.4022 36.4283 405.6662 -43.2552 569.0416 C-124.8448 736.3251 -180.4522 877.0731 -167.4578 883.4108 C-167.1542 883.5589 -166.8159 883.6323 -166.4435 883.6323 C-150.878 883.6323 -75.8817 755.3682 3.8018 591.9929 C85.3914 424.7094 140.9988 283.9615 128.0044 277.6237 C127.7008 277.4756 127.3625 277.4022 126.9901 277.4022 Z" style="fill:none;" />
    </g>
    <g style="text-rendering:optimizeLegibility;">
      <text xml:space="preserve" x="10" y="20" style="stroke:none;"></text>
      <text xml:space="preserve" x="10" y="35" style="stroke:none;"></text>
      <text xml:space="preserve" x="10" y="50" style="stroke:none;"></text>
    </g>
  </g>
</svg>
